<svg xmlns="http://www.w3.org/2000/svg" width="600" height="509" version="1"><style>.a{fill:black;}.b{fill-rule:evenodd;fill:black;}</style><g transform="translate(-226.1321 -293.592)matrix(1.697553 0 0 1.697553 -237.7672 38.25535)" class="a"><g class="a"><path d="M569.4 394.1C558.6 397 547.1 397.9 536.7 401.5 554.4 386.3 553.4 362.8 565.2 344.9 569 339.8 572.1 334.5 576.5 329.7 569.3 344.1 572.4 362.8 564.1 376.8 560.9 382.4 556.4 387.8 551.4 392.2 553 392.1 554.4 390.7 555.9 389.7 569.3 376.3 586.8 372.6 601.4 361.7 607.2 357.1 612.5 351 615.1 344.4 612.3 366.7 590.2 387.5 569.4 394.1L569.4 394.1z" class="a"/><path d="M617.7 304.1C611.2 313.5 603.2 322.2 597.2 331.7 597.8 324.2 598.7 314.9 595.8 307.8 590.7 292.5 586.3 276.9 584.8 260.1L585 253.6C588.8 270.8 605.7 282.6 604.7 301.9 605 306.6 603.6 310.6 602.7 314.7L603 315 603.8 314.1C606.3 304.7 607.5 294.7 611.4 285.9 617 273.2 623.9 260.4 621.1 245 629.5 263.1 626.9 287.3 617.7 304.1L617.7 304.1z" class="a"/><path d="M607.4 206.8C618.4 221.8 620.9 245.7 612.8 262.9 609.8 270.2 607.7 278 606.5 286 605.9 284.6 605.8 282.8 605.3 281.2 600.9 264.4 585 252.4 578.4 236.5 576.3 231.3 574.6 225.9 573.6 220.3 580.6 233.2 597.8 239.9 602.5 254.2 604.5 257.8 604.4 262.3 605.6 266.2 605.8 266.2 606.1 266 606.1 265.7 604 251 604.6 235.7 606.6 221.1 606.5 213.3 605.7 205.6 601.4 199.6 604.2 201.2 605.4 204.3 607.4 206.8L607.4 206.8z" class="a"/><path d="M599.6 203.9C602.5 217 598.2 229.8 600.9 243.1L600.8 243.2C593.6 229.2 578.5 222.5 568 211.3 562 204.6 559.3 196.4 557.8 187.8 563.8 202.2 579.9 205.4 589.2 217.6 592.3 220.4 593.3 224.3 595.3 227.5L595.7 227.1C590.3 215.8 588.5 202.9 584.8 190.8 583 185.5 579.3 180.4 574.3 177.1 586.5 179.5 597 192.3 599.6 203.9L599.6 203.9z" class="a"/><path d="M567 173.7C576.2 181.9 580.3 192.6 583 203.6L584.5 207.1C571.2 197.5 559.1 184.6 550.6 171L540.2 160.5C549.4 164.4 559.2 166.7 567 173.7L567 173.7z" class="a"/><path d="M356.8 162.3C347.6 170.3 341.2 180.5 334.4 190.1 328.3 197.6 320.5 202.6 313.5 209.1 317.3 201.4 317.4 192.1 322.7 185 330.3 171.8 344.3 167.2 356.8 162.3L356.8 162.3z" class="a"/><path d="M306.5 190.4C311 184.8 316.6 180.9 323 179.3 310.6 187.8 311.4 203.1 307.5 215.8 306.3 220.5 304.1 224.8 303 229.6L303.3 229.8C305.4 224.4 309 219.3 313.5 214.8 322.3 206.7 335.3 201.6 339.7 189.6 339.5 206.3 325.5 219.5 312.2 228.8 306.7 233.7 301.4 239.2 298.4 245.4 298.1 241.1 299 236.9 298.7 232.4 297.2 217.8 296.2 201.2 306.5 190.4L306.5 190.4z" class="a"/><path d="M281.4 240.2C281 225.4 287.2 213.4 295.8 202.4 296.1 202.2 296.2 202 296.6 202.1 287.1 216.5 294.9 234.7 294.5 251.2L293.2 268C293.4 268.1 293.4 268.6 293.9 268.4 294.4 266.6 294.5 264.6 294.9 262.6 297.2 249 309 239.4 319.3 230 321.5 227.6 323.4 225.1 324.5 222.2 323.7 229 321.6 235.8 318.8 242 310.8 257.7 295.9 270.5 293.2 288.4 291.9 271.2 280.2 258.4 281.4 240.2L281.4 240.2z" class="a"/><path d="M274.2 261.2C275.3 256.6 276.1 251.8 278.1 247.6 274.3 267.1 287.4 281.2 291.7 298.1 293.5 304.5 294 311.3 296.6 317.2 296.8 317.4 297 317.1 297.2 316.9 290.7 298.9 300 282.2 309.3 268.1 311.6 264.3 312.9 260.1 314 255.7 315 263.8 312.9 273.2 311.8 281.6 309.5 292.4 306.1 302.6 303.2 313 301.2 319.6 301.8 326.9 302.7 333.7L301.8 333C295 320.4 281.5 310.6 277.5 296.8 274.2 285.9 272 273.2 274.2 261.2L274.2 261.2z" class="a"/><path d="M273.6 299.4C275.1 320.1 297.4 331.1 307.7 348.2 310.1 351.7 312.3 355.6 315.5 358.5 315 356.3 312.9 354.5 312.2 352.2 308.6 345 307.3 336.4 308.1 327.7 309.1 317.2 313.6 307.4 311.9 296.2 320.9 315.8 318.2 340.2 323.3 361.4 324.6 366 327.3 370.2 329 374.6 310.4 361.9 285 349.8 276.7 326.6 273.2 318.5 272.8 308.6 273.6 299.4L273.6 299.4z" class="a"/><path d="M284.7 347C295.1 370.5 321.1 372.4 338.6 386.7 341.8 389.6 345.2 392 348.8 393.7L349 393.5C345 389.9 340.3 385.7 337.5 381 327.3 366.8 330.9 347 323.3 331.7 330.2 340 336.5 348.6 340.7 358.1 347 373.5 349.4 390.9 363.8 402.5 348.2 397.4 329.9 398.8 316.1 389.2 301 379.9 287.5 364.2 284.7 347L284.7 347z" class="a"/><path d="M311.4 390.8C328.1 409.8 355.3 403.4 377.5 408.4 380.6 408.8 383.5 410.1 386.8 409.6 384.2 407.9 380.5 408.1 377.6 406.6 360.2 400.4 357.7 381.6 348.2 368.9 360.3 376.9 370.4 387.7 381.6 398.2 389.6 405.2 399.2 408.4 409.4 410.5 406.9 411.4 403.7 411.1 401.1 411.8 382.9 416.3 362.6 423.6 343.3 417.1 330.7 413.1 317.8 403.2 311.4 390.8L311.4 390.8z" class="a"/><path d="M537.6 435C518.8 442 499.2 434.7 484.5 423.5 478.6 419.8 473.4 414.3 465.7 414.8 462.9 414.8 460.2 414.9 457.8 415.6 472.1 422.2 485.3 431.3 497.4 443 495.4 445.4 492.7 447.5 490.3 449.5 478.6 437 465.7 424.9 451.2 417.8 448.4 418.2 445.7 419.9 443.1 421.3 431.4 428.7 419.7 438.3 411 450L403.5 443.8C415.5 431.7 428.7 422.2 443.3 415.5 429 410.9 419.7 422.9 408.8 429 396.2 437.8 378.1 441.9 362.8 435.8 354.6 432.7 346.7 428.1 340.7 420.7 352.7 429 370.6 429.8 384.3 424.5 402.6 416.5 421.6 406.4 443.7 411.3 447.2 411.3 450.5 414.8 453.8 411.8 470.2 407.6 488.8 410.5 502.9 418L517.4 423.8C531 428.8 548.5 427.5 560.1 419.2 554.1 426.6 546 432 537.6 435L537.6 435z" class="a"/><path d="M557.7 415.6C536.6 423.5 515.4 413.8 495.2 410.5L491.3 410 491.3 409.9C501 407.7 510.3 404.8 518 397.9 529.3 387 539.4 375.8 552 367.2 542.7 379.2 541.7 396.2 526.3 403.9 522.5 406.4 517.7 406.8 513.7 408.7 519.3 408.8 524.5 406.8 530 406.2 550.7 403 574.3 406.3 588.8 388.7 583.4 401 569.9 411.3 557.7 415.6L557.7 415.6z" class="a"/><path d="M596 356.3C587.6 361.7 579.2 366.8 571.2 373L571.2 372.2C583.5 351.8 577.5 323.9 585 301.5L587.8 294C586.3 307.9 592.3 319.7 591.9 333.7 591.5 342.2 588.7 349.7 584.3 356.5L585 356.5C591 348.6 595.7 340.2 602.7 332.7 613.6 322.2 624.7 311.4 626.1 296.8 629.8 321.2 616.2 342.5 596 356.3L596 356.3z" class="a"/></g><g class="a"><polygon points="448.1 303.3 451.9 303.3 451.9 398.1 448.1 398.1 448.1 303.3 " class="b"/><polygon points="427.6 293.9 430.3 296.6 363.2 363.6 360.5 360.9 427.6 293.9 " class="b"/><polygon points="421.2 274.2 421.2 278 326.4 277.8 326.4 274.1 421.2 274.2 " class="b"/><polygon points="430.2 255.9 427.5 258.6 360.5 191.5 363.2 188.8 430.2 255.9 " class="b"/><polygon points="451.8 248.1 448.1 248.1 448.2 153.3 451.9 153.3 451.8 248.1 " class="b"/><polygon points="470.8 257.2 468.2 254.5 535.3 187.5 538 190.2 470.8 257.2 " class="b"/><polygon points="478.1 278.3 478.1 274.5 573 274.4 573 278.1 478.1 278.3 " class="b"/><polygon points="467.2 297.6 469.9 294.9 537 361.9 534.3 364.6 467.2 297.6 " class="b"/><path d="M485.4 181.2C537.6 200.7 564.1 258.9 544.6 311.2 525.1 363.4 466.9 389.9 414.6 370.4 362.4 350.9 335.9 292.7 355.4 240.4 374.9 188.2 433.1 161.7 485.4 181.2L485.4 181.2zM483.8 185.3C533.8 204 559.2 259.7 540.5 309.6 521.8 359.6 466.1 385 416.2 366.3 366.2 347.6 340.8 291.9 359.5 242 378.2 192 433.9 166.6 483.8 185.3L483.8 185.3z" class="b"/><path d="M477.3 202.9C517.5 217.9 538 262.8 522.9 303.1 507.9 343.3 463 363.8 422.7 348.7 382.5 333.7 362 288.8 377.1 248.5 392.1 208.3 437 187.8 477.3 202.9L477.3 202.9zM475.7 207C513.7 221.2 533 263.5 518.8 301.5 504.6 339.5 462.3 358.8 424.3 344.6 386.3 330.4 367 288.1 381.2 250.1 395.4 212.1 437.7 192.8 475.7 207L475.7 207z" class="b"/><path d="M469.4 223.9C498.1 234.6 512.6 266.5 501.9 295.2 491.2 323.8 459.2 338.4 430.6 327.7 401.9 317 387.4 285 398.1 256.4 408.8 227.7 440.8 213.2 469.4 223.9L469.4 223.9zM468 227.7C494.6 237.6 508.1 267.2 498.1 293.8 488.2 320.4 458.6 333.9 432 323.9 405.4 314 391.9 284.4 401.9 257.8 411.8 231.2 441.4 217.7 468 227.7L468 227.7z" class="b"/><path d="M460.6 247.5C476.2 253.4 484.1 270.8 478.3 286.4 472.4 302 455 309.9 439.4 304 423.8 298.2 415.9 280.8 421.7 265.2 427.6 249.6 445 241.7 460.6 247.5L460.6 247.5zM459 251.6C472.4 256.6 479.2 271.5 474.2 284.8 469.2 298.2 454.3 305 441 300 427.6 295 420.8 280.1 425.8 266.8 430.8 253.4 445.7 246.6 459 251.6L459 251.6z" class="b"/><path d="M508.9 166.2C570 199.8 593.2 276.2 560.7 336.7 528.1 397.2 452.2 419 391.1 385.4 330 351.8 306.8 275.4 339.3 214.9 371.9 154.4 447.8 132.6 508.9 166.2L508.9 166.2zM506.8 170.2C565.6 202.6 588 276.2 556.6 334.5 525.3 392.8 452.1 413.8 393.2 381.4 334.4 349 312 275.4 343.4 217.1 374.7 158.8 447.9 137.8 506.8 170.2L506.8 170.2z" class="b"/><path d="M523.7 334.4C523.8 335 523.6 336.6 523.9 337 524.2 337.5 525.4 337.4 525.9 337.2 527.3 336.7 528.6 334.9 529.3 333.5 529.7 332.8 530 332 529.9 331.1L529 328.1C528.7 327.1 528.4 325.3 527.3 324.9 527.4 324.6 527.8 324.2 527.7 323.8 527.5 322.6 525.5 322.9 524.8 323.8 524.5 324.2 524.6 325.1 524.5 325.7 524.5 326.7 524.2 328.8 523.8 329.8 523.3 330.8 522.2 332 522.2 333.1 522.2 333.9 523.1 334.3 523.7 334.4L523.7 334.4zM459.3 326.3L459.6 327C459.6 327.1 459.8 327.4 459.9 327.4 460.8 328.2 462 326.3 460.5 326 460.4 326 460.1 325.9 460 326.1 459.8 326.1 459.5 326.1 459.3 326.3L459.3 326.3zM460.2 324.3C459.6 324.9 459.4 325.3 460.4 325.8L460.2 324.3 460.2 324.3zM444.6 312.9C443.6 313.7 443.7 313.2 443.2 313.5 442.8 313.8 443.1 314.2 442.8 314.7 442.7 315 442.3 315.2 442.4 315.4 442.3 315.8 442.7 316.1 443.1 316.1 443.6 316.2 445.2 316.1 445.7 315.8 446.2 315.3 446 314.8 446.2 314.4 446.3 314.3 446.5 314 446.6 313.9 446.7 313.2 445.3 312.4 444.6 312.9L444.6 312.9zM482.2 308.8L482.3 310.1 482.2 311.2C483.6 310.9 484.4 310.5 485.7 310 486.1 309.8 486.8 309.5 487.1 309.7 487.5 309.9 487.3 310.3 487.2 310.6 487 311.2 486.2 312.1 485.8 312.6 484.8 313.7 483.2 313.9 481.9 315 481.2 315.7 481 316.4 480.3 317.1 479.6 317.9 479.1 318 478.7 318.3 478.4 318.8 478.7 319 477.9 319.5L478.4 318.5C478 318.4 477.4 318.5 477.1 318.1 477 317.7 476.9 317.3 477 316.9 477.2 316.1 477.3 314 477.8 313.4 477.9 313.3 478.9 312.9 479.3 312.8L479.1 313.6C479.5 313.5 480.2 313.5 480.4 313.3 481.1 313.1 481.7 311.8 482 311.2L480.3 311.9C480.6 311.1 481.4 309.4 482.2 308.8L482.2 308.8zM447.3 312.7C447 314 447.8 313.5 448.2 314 448.5 314.2 448.6 314.6 448.6 315L447.6 315.2 447.1 315.9 446.5 316.6 448.3 317.1C447.4 317.5 446.9 317.4 446.3 318.2L448.5 318C450 318 451.1 318.3 452.4 317.5L452.1 317.3 452.5 316.1 451.5 315.5 451.2 314.8 449.5 312.8 449 312.6C449.5 312 450.4 311 449.1 310.8L448.4 310.7 449 310C448.2 309.9 447.5 309.8 446.9 310.4 446.2 311.3 446.2 312.3 447.3 312.7L447.3 312.7zM446.5 295.9L446.5 296.8 446.2 296.4 446.3 298C446.5 298.9 447.5 298.5 447.7 298.3 448 298.1 448 297.6 448 297.3 448 297.1 447.8 296.8 447.7 296.7 447.4 296.6 447.3 296.6 447 296.6L446.9 295.8 446.5 295.9 446.5 295.9zM339.5 304.2C339.5 306.1 340 306.1 340.4 307.8 340.7 308.7 340.3 308.9 341 310.7 341.3 311.5 341.6 312.3 342.4 312.6 342.1 310.4 341.9 309.1 341.1 307 340.6 305.8 340.2 305.7 339.8 304.1L339.5 304.2 339.5 304.2zM518.9 282.5C518.3 282.9 518.1 283.3 518.2 283.9 518.1 284.6 518.7 285.1 519.3 284.9 520.2 284.5 520.4 282.3 518.9 282.5L518.9 282.5zM396.2 282.3C395.8 282.9 395.8 283.6 396.5 284.1 396.4 283.4 396.6 282.7 396.2 282.3L396.2 282.3zM434.5 282.9L435 283.2C435.9 282.4 436.1 281.8 436.8 281 437.4 280.3 437.8 280.2 438.1 279.9 438.4 279.7 438.3 279.4 438.4 279 438.6 278.4 439 278.3 438.9 277.4 439 276.6 438.4 275.4 437.6 275.7L437.4 275C437 275.1 436.3 275.2 436 275.5 435.6 275.8 435.8 276.3 435.3 276.8 434.7 277.5 433.7 277.8 433.5 278 433.1 278.2 433.3 278.5 432.7 279 431.8 279.6 431.3 279.2 430.7 279.4 430.1 279.6 429.2 280.6 428.7 281 428 281.9 427.8 282.4 427.5 283.4 427.4 283.7 427.2 284.1 427.3 284.3 427.5 284.6 427.9 284.5 428.1 284.4 428.6 284.2 429.8 283.6 430.2 283.7 430.5 283.6 430.7 283.9 431 284 431.4 284.1 431.6 284.1 431.9 284.2 432.2 284.3 432.5 284.6 432.8 284.9 433.5 285.2 434.2 284.4 434.4 283.8 434.5 283.6 434.6 283.3 434.5 282.9L434.5 282.9zM435.3 272.8L435.3 273 435.2 272.8 435.3 272.8 435.3 272.8zM436.4 273.8C436.8 274.5 438 275.3 438.8 275.9 439 275.8 439.1 275.6 439.2 275.4 439.5 274.7 439.4 273.4 438.7 273.1 438.3 272.8 437.8 273 437.4 273.2 437.4 273 437.2 272.7 437.1 272.5 436.1 271.6 434.8 274.3 436.4 273.8L436.4 273.8zM431 272C431.9 272.9 431.9 273 433.1 272.9 432.9 273.7 431.8 275 431 274.4 430.4 274.1 430.4 273.5 430.1 273.4 429.7 273.2 429.7 274.1 429.4 274.4 428.9 275.4 427.9 275.3 427.9 276.9L428.3 276.6C428.8 277.6 429.8 276.5 430.4 276.2 430.3 276.3 430 276.6 429.9 276.9 429.9 277.3 430.3 277.6 430.7 277.5 431 277.3 431.5 276.6 431.9 276.3 432.2 276 432.3 276 432.7 275.8 433.1 275.5 433.6 275.1 433.9 274.8 435 273.9 435.1 274.4 435.4 273.1 435.4 272.8 435.5 272.7 435.5 272.4 435 271.3 433.1 272.2 433 272.1L432.2 271.9C431.9 271.8 431.4 272 431 272L431 272zM437 271.8L436.4 271.8 436.5 272.2C437.3 272 437.8 272 437.8 271 437.2 271.1 437.1 271.1 437 271.8L437 271.8zM396.1 274.3L395.5 277.2 395.8 278.5 396.3 281.1C396.6 280.5 397.2 278.7 397.3 278.1L397.4 277C397.5 276.2 397.6 276 397.2 275.2L396.4 275.9 396.4 274.2 396.1 274.3 396.1 274.3zM438.3 270.9C438.3 270.1 438.4 270.2 439.1 270.3L439.1 269C438.7 269.1 438.2 269.2 437.8 269.5 437.2 270.2 437.3 270.8 438.3 270.9L438.3 270.9zM434.5 269.1L434.9 269.6C435.8 269.4 436.1 269.6 436.9 269.8L436.6 269.3 436.9 268.7C437.7 268.7 437.8 268 437.5 267.4 437.3 267.3 437 267.2 436.9 267 435.5 266.3 435.4 267.4 435 268L434.5 269.1 434.5 269.1zM437.9 268.7C438.1 268.6 438.4 268.6 438.6 268.5 439.1 268 438.8 266.7 438.4 266.5 438 266.4 437.8 266.8 437.8 267.1L437.7 267.5 437.8 268.1 437.9 268.7 437.9 268.7zM396.1 271.9C396.6 271.3 396.7 270.4 396.8 269.7 395.9 270.2 396 271 396.1 271.9L396.1 271.9zM400.7 263.5C400.8 264.6 400.7 265.7 400.3 266.8 399.8 268 398.5 269.7 398.2 270.9L397.9 270.5C397.4 271.4 397.3 273.2 397.7 274.1 398.4 273.4 398.5 272.5 399 271.6 399.8 269.8 401 268.3 401.4 266.3 401.5 265.8 401.6 264.3 401.3 263.8 401.1 263.6 401 263.6 400.7 263.5L400.7 263.5zM519 266.9C519.6 265.9 519.8 263.9 520.1 262.7 520.7 259.9 522 258.6 521.6 255.1 521.5 254.3 521.3 252.8 520.3 252.6 518.9 252.5 519.5 254.4 519.4 254.8 519.4 255.2 519.3 255.4 519.2 255.7 518.6 257.1 518.9 258.6 518.9 260.1L518.6 264.8 519 266.9 519 266.9zM497.9 244.5C498 244.7 498.1 244.9 498.3 245.1 498.4 245.2 498.6 245.4 498.7 245.5 499.5 245.9 500 245.1 499.6 244.6 499.5 244.3 499 244.3 498.7 244.3 498.4 244.3 498.2 244.3 497.9 244.5L497.9 244.5zM517.4 242.2C517.5 243.4 518 245.3 518.5 246.3L519.6 248.5 521 252.5C521.7 251.7 521.3 250.7 521.1 249.8 520.5 248 519.6 246.2 518.9 244.6 518.4 243.7 518.1 242.8 517.4 242.2L517.4 242.2zM510.2 240.1L510.1 241.6 508.3 240.9C508.3 241.9 508.7 243.3 509.4 244L510.8 245C512 246 513.2 247.1 514.2 248.2 515.1 249.3 515.1 249.6 515.5 250.1 515.7 250.4 516 250.6 516.4 250.4 516.7 250.3 516.7 249.6 516.8 249.4L517.3 248.5C517.4 247.9 516.9 246.9 516.6 246.2L515.8 244.3C515.4 243.4 515.2 242.7 514.6 241.9 513.6 241 512.8 241.1 511.7 240.8L510.2 240.1 510.2 240.1zM474.1 241.9C474 242.4 473.9 243.2 473.3 243.4 473.2 243.4 472.6 243.3 472.5 243.2L472 244.7C471.8 245.1 471.4 246.2 471.4 246.6 471.4 247.3 472.3 247.2 472.7 246.6 473.2 246.2 473.3 245.5 473.6 245 474.1 243.9 475.1 243.4 475.2 242.1L474.1 241.9 474.1 241.9zM514.3 237C514.7 238.1 515 238.2 515.6 239.2 515.9 239.9 515.8 240.3 516.6 240.1 516.1 239.4 514.9 237.3 514.3 237L514.3 237zM459.8 244C458.4 243.8 459.4 245.5 459.2 246.1 458.8 246.8 457.4 247.9 456.7 247.4 456.3 247.6 455.9 247.6 455.5 247.5 455.1 247.4 454.8 247.2 454.4 247.2L452.4 248.7C452 249 451.5 249.3 451 249.4 450.6 249.4 450.1 249.4 449.8 249.7 449.5 250 449.8 250.8 450 251.2L450.6 252C449.3 252.4 449.4 253.3 449.6 254.5 449.6 255.1 449.9 257.5 450.1 258 450.3 258.6 451.1 259.2 451.8 259.4 452.2 259.6 452.9 259.7 453.3 259.7L453.4 258.1 453.8 258 454.2 259.3C454.3 259.3 454.5 259.3 454.7 259.3L456.3 259.7C456.4 259.8 456.4 259.8 456.6 259.9 456.7 260.3 456.4 261 456.5 261.3 456.7 262.2 457.6 262.4 458.4 262.4 458.4 263.4 458.5 263.1 458.4 263.8 458.5 264.4 458.1 264.5 458.9 265.9 459.1 266.1 459.4 266.7 459.8 266.7 460.2 266.7 461 265.7 461.9 265.2 462.1 265.8 462.1 266 462.6 266.3L462.5 267 463.9 266.1C463.5 268.1 462.7 267.6 461.7 268.9 461.4 269.6 461.6 270.2 461.4 270.9L461.6 271 462.1 270.7 462.4 270.5C463.6 270.3 462.7 271.7 462.7 272 462.8 272.3 463 272.4 463.3 272.6L462.7 273 463.1 273.9 460.7 274.1C459.6 274.3 458.6 275.2 457.6 276L457.7 276.2 458.1 276.3 455.8 277.4C456.5 277.6 457.4 277.3 458 277.2 458.7 277 458.6 277.2 459.3 277L459.8 277.2 459.7 277.7 462.5 278.7C463.2 278.9 463.7 278.6 464.1 278.8 464.7 279.1 464.5 279.8 465.4 280 466.5 280.3 467.4 279.7 468.3 279.5L467.2 280.6 467.7 281.5 469 281.1C468 282.1 468.1 281.3 466.2 281.5 466.7 281.7 467.9 282.3 468.2 282.4 468.9 282.6 469.2 282.3 470.2 282.6 471 282.8 472 283.3 472.2 282.1 472.4 282.4 472.5 282.6 472.7 282.8 473.1 283 473.4 283 473.8 283 474.3 283.1 475.6 283.9 475.5 284.6 475.4 284.7 475.3 284.9 475.2 285 475 284.6 474.8 284.3 474.5 283.9 473.8 283 472.6 283.4 471.7 283.2L469.8 282.7 468.3 282.6C467.5 282.6 467.1 282.1 466.3 282.1 466.1 282.2 465.7 282.3 465.7 282.6 465.7 282.8 466 283.1 466.2 283.2 467 283.7 466.7 283.3 468 284.1 468.7 284.6 468.9 284.4 469.6 284.6L470.3 284.9C470.8 285 470.9 284.7 471.5 284.8 471.7 284.8 472.2 284.9 472.5 285L470.3 286 468.5 285.8C468.9 286.5 469 286.6 468.4 287.3L468.1 286.8C467.8 287.3 467.8 287.5 467.5 287.9L466.9 288.7C466.8 288.9 466.4 289.4 466.2 289.4 465.8 289.4 465.3 288.9 465 288.7 464.5 288.3 464.2 288.4 463.6 288.6 464.1 289.3 464.3 289.2 465 289.5 465.6 289.8 467 291 467.5 291.5 467.3 291.5 467.2 291.5 467.1 291.8 466.9 292.1 467.1 293.2 467.4 293.6 467.7 293.8 468 293.9 468.4 293.9L466.8 295.4C467.5 295.6 467.7 295.4 468.3 295.9L467 296 465.3 294.7 463.5 294C464.2 294 465.2 294.1 465.9 293.7 467 293.1 466.4 291.9 465.6 291.1 465 290.8 464.6 290.8 464 290.8 463.4 290.7 462.6 290.4 462.1 290.4L460.7 290.7 460.8 290.3C460.4 290.2 460.2 290 459.9 290.3 459.4 290 459.4 289.9 458.9 289.8L458.9 290.4 458.4 289.8 458.3 290.5C458 290 458 289.9 457.4 289.6L457.9 291.3 457.6 291.7C456.9 292.3 456.9 293.6 457 294.4 457.2 296 456.8 296.4 456.7 297.6 456.7 298.5 457 298.9 456.7 300.2 456.6 300.7 456.1 302.2 455.9 302.6L455.4 303.4 454.9 304.2C454.7 304.6 454.3 304.9 454.1 305.3 453.9 305.8 454.2 306.1 454.4 306.3 454.6 307.1 454 306.9 454.9 308L454.5 308.6 455 308.5C454.7 309.5 455.3 310.1 456.2 309.9 456.8 309.7 457.5 308.8 457.7 308.1L458 308.1 459.7 311C460 311.3 460.1 312 460.6 312.1 461.2 312.2 461.4 311.6 461.6 311.2 461.8 310.9 462 310.8 462.3 310.5 462.6 309.8 462 308.8 462 308.1 462.1 307.6 462.5 307.3 462.5 306.7 462.4 305.7 461.8 305.5 461.3 305.1 460.9 304.6 460.8 304 460.7 303.4 460.6 302 461.3 301.5 461.5 300.3 461.5 299.5 461.1 299 461 298.5 461 298.1 461 297.7 461.4 297.7 462.3 297.5 462.4 298.5 462.5 299.2L462.4 300.5C462.3 301 462.1 301.4 462.2 302.1 462.4 302.6 462.7 303 462.8 303.3 463.1 303.7 463.2 304.1 463.5 304.3 463.7 304.4 463.9 304.6 464.1 304.5 464.4 304.6 464.7 304.8 464.9 304.7 465.6 304.5 466.2 303.3 466.8 302.9 467.2 302.6 467.7 302.6 468.1 302.6 467.9 303 467.3 303.7 467.1 304 466.6 304.3 465.7 304.5 465.7 305.3 465.4 306.4 466.8 306.3 466.8 307.2 466.7 307.9 465.7 307 465.4 307.8 465 308.7 465.5 309.1 465.7 309.8 465.8 310.2 465.6 310.6 465.5 311 464.9 312 464.5 311.3 463.7 311.8 463.1 312.1 462.4 313.1 461.8 313.3 461.3 313.5 460.9 313.1 460.5 313.1 459.9 313.2 459.5 314 458.7 313.3 457.8 312.5 458.8 312 458.6 311.2L458 309.9C457.3 310.4 456.6 311 456.8 312 457.2 312.9 458 313.6 457.6 314.3 457.2 314.6 456.4 314.7 455.8 315.1 455.1 315.6 454.3 317 454.1 317.1 453.7 317.4 453.3 317.5 453 317.8L451.7 319.1C451.5 319.2 451.5 319.2 451.4 319.3L449.8 318.8 449.9 319.7C449.3 319.8 449.3 319.8 448.7 319.7 448.3 319.6 447.5 319.6 447.3 320.1 447.1 320.5 448.2 320.8 448.5 320.9 450.1 321.7 450.4 323.5 449.7 324.2 449.3 324.7 448.4 324.3 447.9 324.3 446.7 324.1 444.8 323.6 443.6 323.6 442.1 323.7 442.6 324.7 442.3 325.5 442.2 326.1 441.7 326.4 441.6 326.8 441.5 326.9 441.5 327.1 441.5 327.2 441.5 327.1 442 328.7 441.9 328.6 442.1 329.1 443 329 443.6 329.1 444.2 329.3 444.4 329.7 445 330 445.5 330.2 445.8 330.1 446.3 329.9 447.4 329.8 448.6 330.4 450.3 329.4 450.7 329.3 451 329 451.1 328.7 451.5 328.3 451.3 327.9 451.8 327.5 452.4 326.9 453.5 326.6 454.1 326.2 454.6 325.8 454.3 325 455.2 324.7 455.8 324.5 456.5 324.9 457.4 324.6 458.1 324.4 459 323.5 459.7 323.3 460.5 323.3 461 324.1 462.1 324.4L466.4 325.4C466.5 325.3 466.8 325.5 466.9 325.6 468.1 326.5 466.4 326.9 465.8 327.1 465.3 327.3 465.1 327.3 464.6 327.4 464.8 327.5 464.8 327.6 464.9 327.7 465.5 327.9 466.8 328.1 467.3 327.6 467.5 327.4 467.5 327.1 467.4 326.7 467.9 326.5 468.2 326.4 468.4 325.8 468.3 325.4 468.2 325.1 468.5 324.8 468.8 324.5 469.3 324.4 469.7 324.4 469.1 323.7 468.6 324 467.8 323.9 467.4 323.8 467.2 323.6 466.8 323.5 466.4 323.5 466.1 323.8 465.5 323.6 465.1 323.5 464.7 323.1 464.3 323 463.9 322.8 462.8 322.7 462.9 322 463 321.7 463.1 321.6 463.3 321.6 463.5 321.4 463.6 321.4 463.7 321.4L463.9 321.9C465.3 321.4 464.8 322.1 466 322.2 467.1 322.5 468.4 322.2 469.5 322.6 470.2 322.8 469.9 323.2 470.5 323.8 471.3 324.4 472.3 324.2 473.2 324.1 473.1 324.2 472.9 324.2 473 324.4 472.7 324.8 473 325 473.3 325.1 474.3 325.7 475.7 324.5 474.5 324L476.5 323C475.5 322.6 475 323 473.8 322.2 474.4 322.1 474.5 322.1 475 321.7L475.1 321.2 477.2 320C476.5 321.2 477.3 320.8 477.5 322 478.2 321.9 479 322.1 479.7 322.1 480.2 321.9 481.5 321.4 481.9 321.1 482.3 320.8 482.4 320.4 482.7 320.1L484.2 319.4C484.8 319 485.3 318.4 485.8 317.8 486 317.6 486.2 317.3 486.6 317.4 487.2 317.6 487.3 318.9 487.4 319.4 487.5 319.8 487.7 320.3 487.8 320.7 487.7 322.4 485.9 322.7 484.8 323.6 484.1 324.2 483.5 325.1 482.8 325.5 481.8 326.2 479 327.2 477.8 327.6L475.1 328.1C474.4 328.4 473.7 329 473.5 329.6 473.3 330.1 473.6 330.7 473 331.1 472.4 331.4 469.8 331.7 469.2 331.7 468.1 331.5 468.4 331.2 466.9 331.4 465.5 331.5 463.9 331.8 462.4 331.5 462.7 331.2 463.1 330.6 463.2 330.2 463.3 330 463.2 329.8 463.2 329.6 463.1 329.5 463.1 329.2 463 329.1 462.7 328.7 461.6 328.8 461.2 328.8 460.3 329.1 460.5 329.3 459.1 329.4L454.3 330C451.9 330.2 450.1 331.2 449.2 331.2 448.5 331.3 447.1 331.2 446.4 331 445.8 330.7 445.3 330.3 444.6 330.6 444 330.8 443.8 331.3 443.1 331.7 442.3 332 440.9 332.1 440 332.7 439.2 333.3 439.6 333.8 438.6 334.3 438.1 334.5 436.4 334.5 435.8 334.5 434.3 334.5 433.6 335.1 432.3 335.6L430.9 336.2C430.4 336.3 429.4 336.6 429.2 337 429 337.4 429.3 337.9 429.3 338.3 429.4 338.7 429.3 339.1 429.2 339.5 428.5 340.4 426.8 341.3 427.1 342.7 427.3 343.6 427.8 343.7 428.8 344.5 430.2 345.8 431.1 347.7 432.6 348.8 434.4 350 437.1 351.6 439.3 352.1L443.3 352.3C445.4 352.5 447 353 449.3 352.9L454.2 352.1C455.2 352 456.7 351.7 457.8 352 458.9 352.3 459.1 353.1 461.1 352.9L463.8 352.5C464.4 352.3 464.9 352.2 465.6 352.5 467.3 353.4 464.5 355.1 465.8 356.2 466.5 356.7 468.8 356.9 469.8 357.2 470.5 357.3 472.6 358.4 473 358.9 473.3 359.2 473.3 359.4 473.6 359.8 473.9 360.2 474.6 360.4 474.6 360.7 474.7 361.1 473.8 361.9 473.6 362.1 472.9 362.9 471.5 364.7 472.3 365.8 472.6 366.2 473.4 366.5 473.8 366.7L477.6 367.8C479.3 368.5 479.4 369.8 480.4 370.5 481.1 370.9 482.3 370.8 483.2 370.9L487.1 371.8C488.5 372.2 487.9 373.1 489 373.3 491.2 373.4 494.7 371.4 496.5 370.2L500.2 368.3C501.7 367.5 503.1 366.6 504.4 365.7 507 363.8 509 361.2 510.3 358.3 510.7 357.5 512 355.6 512.1 355 512.2 354.2 511.4 353.8 511.7 353.1 512.1 352.1 513.8 350.8 514.2 349.7 514.6 349.1 514.5 348.2 513.9 347.9 513.4 347.7 513 348 511.9 347.7 512.7 345.5 514.2 343.4 515.4 341.4 516 340.6 517 339.1 517 338 517 336.8 516 336.8 515.6 336.3 515.1 336 515.2 335.7 514.9 335.6 514.4 335.4 513.5 335.8 513 335.8 512.6 335.8 512.3 335.6 512 335.4 511.6 335.2 511.1 335.4 510.7 335.4 510.1 333.6 511.4 330.4 512 328.6 513.1 324.8 514.7 321 514.1 317L513.5 313.9C513.4 313.5 513 313 512.5 313.2 511.8 313.4 511.1 315.7 510.8 316.4L509 319.6C508.6 320.3 508.3 321.2 507.7 321.8 507.2 322.2 506.5 322.5 505.8 322.9 505.6 322.2 505.3 322.4 504.8 322.6L502.4 323.8C501.9 324.1 500.9 324.9 500.3 324.9 499.8 325 499.5 324.6 498.7 324.8 498.2 324.9 497.3 325.2 496.9 325.1 496.4 325 495.8 324.6 495.3 324.5 494.9 324.4 494.1 324.6 493.7 324.7 492.4 324.9 490.4 324.3 489 324 489.3 323.8 489.5 323.8 489.5 323.5 489.7 322.9 488.7 321.8 489.9 321.4 490.1 321.4 490.3 321.4 490.5 321.4L492.7 321.3 494 321C494.6 321.1 494.8 321.5 495.7 321.4L498.9 320.6C500.2 320.5 500.7 321.7 502.1 320.8 503.2 320.1 504.2 317.5 504.6 316.3L505.7 313.4 506.2 311.4C506.7 309.9 507.1 309.2 506.9 307.5L506.7 305.1C506.6 304 506.4 303.2 505.3 304.3 504.5 305.1 504.2 306.1 502.8 305.9 502.5 307.5 502.7 309.6 501.1 310.5 500.5 311 499.8 310.8 499.2 311 498.8 311.1 498.3 311.5 498 311.3 497.7 311.4 497.4 311.1 497.3 310.8 497.4 310.2 498.3 309.9 498.7 309.7 499.9 309.2 500.6 309 501.5 307.9 502 307 502.1 306.4 502.6 305.7 503 305.1 503.4 305.2 503.9 304.7 504.2 304.2 504.9 302.9 505.2 302.3L506.8 297.6C507.6 296.2 508.8 295.9 509.2 294.2L509.4 294.8C510.8 294.2 510.7 292.9 510.5 291.6 511.3 291.5 512.8 291.6 513.5 291.4L516.4 289.6C517.2 289.1 518.4 288.2 518.6 287.4 518.8 286.9 517.9 285.1 517.6 284.8 517.5 284.5 517.3 284.4 517 284.3 516.4 284.1 515.5 284.3 515 283.4 514.4 282.7 513.7 280.1 513.2 279.1 512.1 276.5 512.1 277 511.6 276 511.2 275.4 511.3 274.7 511.2 274 511 273.5 510.7 273.2 510.7 272.9 510.6 272.4 511 272.1 511.4 271.7 511.9 270.7 511.8 269.9 512.4 269.3 512.9 268.9 513.3 269.1 513.5 268.7 514.3 267.6 512.4 266.7 513 265.5 513.4 264.9 514.3 263.9 515 263.8 515.5 263.7 515.9 263.9 516.4 263.7 516.9 263.4 516.9 262.5 517.1 261.9 517.6 260.6 518.4 260.6 518.6 258.8 518.7 258.1 518.7 257.2 518.4 256.7 517.8 256 516.9 256.6 516.7 257.1 516.3 257.8 516.4 258.7 516.5 259.5 516.4 260.3 516.3 261.4 515.8 262.1 515.3 263 514.2 262.3 513.8 261.8 513.7 261.6 513.8 261.3 513.8 261.1 513.8 260 513.5 259.6 513.7 258.4 513.8 257.9 514.3 256.4 514.1 256.2 514.1 255.8 512.9 254.4 512.6 254.1 512 253.5 511 252.1 510 252.7 509.1 253.2 509.3 254.9 509.1 255.8 509 256.2 508.9 257 508.5 257.1 508.2 257.2 507.8 256.9 507.5 256.6 506.8 255.9 506.3 255.4 506.2 254.3 506.6 254.4 507.7 254.6 507.8 254.1 507.7 253.6 507.1 252.7 506.6 252.8 506 252.7 506 253.2 505.3 252.8 504.7 252.3 503.4 250.2 502.8 249.4 502 248.5 500.9 247.6 499.8 247.1 499.1 246.9 496.9 246 496.3 246.5 496.1 246.6 496.1 247 496 247.3 495.9 247.2 495.7 247.1 495.5 247.1 494.5 246.9 494.2 248 494.2 248.6 494.2 248.9 494.3 249.4 493.9 249.6 493.5 249.7 493.2 249.5 492.9 249.3 492.2 248.8 492.2 248.7 491.3 248.4 491.5 248.9 491.6 249.4 492 249.9 492.7 250.9 493.2 250.8 493.1 252.1 492 251.7 490.8 251.2 490 250.3L491 250 491 249.7C490.6 249.5 489.2 248.4 489.1 247.9 489.1 247.5 489.6 247.5 489.6 247.1 489.6 246.7 489.2 246.5 489.4 245.9 489.8 245.5 490.5 245.2 490.5 244.6 490.4 244.4 490.2 244.1 489.9 244 489.3 243.7 488.3 243 487.7 243.6 487.3 244 487.6 244.9 487.4 246.1 486.9 246 486.3 245.7 485.9 245.6 485.3 245.5 484.7 245.8 484 245.5 483.1 245.2 482.7 244.4 481.9 244.1 480.4 243.4 479.1 243.8 477.7 244.1 477 244.1 476 244.2 475.4 244.5 474.9 244.8 474.7 245.3 474.5 245.7 473.9 246.4 472.7 246.7 472.8 247.8 473.1 248.7 473.9 248.7 474.2 249L475 250.6C474.1 250.8 473.7 250.6 472.9 250.7L469.8 251.3C468.2 251.4 467.8 250.5 466.8 250 466.2 249.8 465.9 249.9 465.4 249.6 465 249.3 465 248.9 464.8 248.8 464.5 248.4 463.2 248.3 462.8 248.3 462.8 248.6 462.8 248.7 462.6 249 462.4 249.4 461.3 250 460.8 250.1 460.5 250.2 460.1 250.1 459.8 250L459.9 249.5C460 248.8 459.6 248.8 459.1 249 458.3 249.2 457.9 249.8 457.2 250.2 457.5 249.8 457.7 249.3 458 248.9 458.5 248.4 459.1 248.2 459.7 247.9L461.7 246.7C462.2 246.4 463 246 463.3 245.8 464.4 244.9 464.6 242.1 464.3 240.7 462.3 241.5 462.9 241.6 461.5 242.4 461 242.7 460.8 242.7 460.4 242.9 460 243.2 459.9 243.6 459.8 244L459.8 244zM473.6 239.2L474.9 240.1 475.9 241.9C476.6 241.5 476.7 241.3 477.2 241.1 477.5 240.9 479.1 241.3 478.7 240.3 478.6 240.2 478.4 240.1 478.3 239.9L478.2 240.3C477.8 240 477.2 239.5 476.7 239.3 476.1 239.1 474.3 239.1 473.6 239.2L473.6 239.2zM478 239.8C479.8 239.7 479.5 239.2 480.6 239.1 481.1 238.9 481.9 239.1 482.4 239.2L482.3 239.7C483.4 240.1 483.4 239.5 484.2 239.7 485 240 485.5 241 486.9 241.4 487.4 241.6 487.7 241.7 488.2 241.4 488.5 241.9 488.6 241.9 489.1 241.9 489.2 241.2 489.6 241 489.4 240.7 489.2 240.3 487.8 239.7 487.7 241.1 487.3 240.5 487.5 240.3 487.3 239.9 486.9 239.3 486 239.3 485.3 239.4 485.1 238.2 485.2 238.5 483.4 237.6 482.9 237.3 481.6 236.8 481 236.7 480.2 236.6 480 237.2 479.3 237.5 479 237.9 478.6 237.8 478.2 238.1 477.9 238.5 478 239.3 478 239.8L478 239.8zM505.5 234.1L507.1 235.9C507.7 236.8 508.3 237.6 509.1 238.4 509.7 238.8 510.5 239.2 511.2 239 511.7 238.8 513.3 237.2 512 236.5 511.6 236.3 511 236.6 510.6 236.7 510.6 235.7 510.6 235.2 510.3 234.3 510.3 234 510.3 233.5 509.8 233.7 509.1 234 509.9 235.9 508.9 235.4L508.5 235.1 508 234.8C507.6 235.3 508.1 235.6 508.6 236 509.1 236.5 509.6 237 509.7 237.8 508.3 236.9 508.2 236.1 507.3 235 506.7 234.4 506.3 234 505.5 234.1L505.5 234.1zM511.1 232.8C511.5 233.7 512.9 235.7 513.8 236 513.2 234.8 512.3 233.2 511.1 232.8L511.1 232.8zM415 242.3C415.3 242.3 415.9 242.3 416.1 242.2L419.5 243.2C420.4 243.4 421.4 243.5 422 244.3 420.3 244.5 420.7 244.2 419.3 243.9 418.1 243.8 417.8 244.1 416.8 244 416.3 243.9 416 243.8 415.6 243.7L412.2 244.3C411.2 244.3 411 243.6 410.5 243.4 409.9 243.1 409.4 243.2 408.9 243.5 408 243.9 407.2 244.5 406.3 245.1 404.7 246.1 402.9 247.4 401.8 248.9 401 250 401.2 250.7 400.4 251.8 399.6 252.8 397.7 253.7 396.4 255.4 395.5 256.7 395.6 257.5 395.3 257.9 395 258.2 393.4 259.1 393 259.3 392.7 259.5 392.3 259.5 392 259.6 391.7 259.9 391.5 260.3 391.2 260.8L389.9 262.2C389.6 262.7 388.3 264.8 388.2 265.4 388.2 266.3 389.6 266.7 388.9 267.9 388.7 268.1 388.6 268.2 388.5 268.4 387.7 269 387.4 268.1 386.8 268 386 267.8 384.8 268.8 384 268.2 383.6 267.8 383.8 267.1 383.7 266.6 383.5 265.9 383.2 265.7 383.1 265.2 382.7 264.5 383 263.3 382.1 262.1 381.6 261.4 381 261.2 380.6 262.1L380.3 262.9C379.8 261.8 380.1 260.8 379.2 260.7 378 260.5 377.6 262 376.9 262.8 375.2 265 374.9 264.7 373.5 265.8L371.8 267.6 370.7 268.4C370.1 269 369.7 270.2 369.4 271L368.1 276.2C367.8 277.3 367.4 279.1 366.2 279.4 365.9 279.6 364.7 279.6 364.3 279.5 363.8 279.2 363.5 278.9 363.1 278.8 362.8 278.8 361.7 278.9 360.7 278.5 360.2 278 359.4 277 358.9 276.8 358.3 276.6 357.8 276.6 357.3 276.7 356.6 276.7 355.7 276.8 355.2 276.7 353.8 276.3 353 274.3 352.4 273.2 352.3 272.7 351.9 271.9 351.5 271.7 350.9 271.2 350.2 272.1 349.5 271.9 349 271.8 347.8 270.6 347.1 270.2 347 270.1 346.6 269.8 346.3 269.9 346.1 269.9 346 270.5 345.9 270.7 345.9 271.8 346.2 272 346.8 272.8 346.9 272.9 347.3 273.4 347 273.7 346.4 274.1 345.5 272.1 344.8 273.1 344.7 273.3 344.7 273.5 344.6 273.6L344.4 273.6 343.7 271.5 343.6 270.6 342.8 268.5 341.7 269.5 341.4 268.4 341.1 267.5C340.9 266.9 340.4 266.9 339.9 267.2 338.9 268 338.2 269.1 337.6 269.5 336.9 270 336.3 269.6 335.8 269.8 335.2 270.1 334.8 271 334.6 271.6L333.6 277C332.7 281.1 332.2 282.1 332.6 286.5L333.2 289 333.6 292.3 334.1 294 334.4 294C334.2 292.3 334.2 289.1 334.7 287.5 335.2 285.8 335.9 285.4 336 283.3L336.3 285C337 284.3 336.9 283.8 337.9 283.3 338.3 283.9 338.4 284 338.6 284.8 338.8 285.4 338.9 286 339.2 286.6 339.5 287.2 339.8 287.3 340.1 287.8 340.4 288.2 340.6 288.8 340.8 289.3 341.2 290.2 341.4 291.6 342.5 291.9 342.9 291 342.8 289.8 342.8 288.8 342.9 288.5 343 287.7 343.2 287.5 343.9 287.3 344.1 288.5 344.2 288.9 344.5 289.9 344.8 291.2 345.4 292.1 346.1 293.2 346.6 293 347.4 294.8L347.6 294.1C348 295 347.5 295.7 348.5 296.3 348.4 295.7 348.3 293.5 348.5 293.1 348.7 292.8 349 292.8 349.3 292.8L349.9 297.2C350 297.7 350.2 298.3 350.5 298.7 351.2 299.4 352.1 298.8 352.4 299.5L352.9 301.8C353.3 303.4 354 305.5 354.6 307 355.2 308.1 355.8 309.7 356.7 310.5 357 310.9 357.5 311.4 358 311.2 358.5 311 358.3 310.4 358.4 310 358.4 309.4 358.7 309.3 358.8 308.9 358.8 308.2 358.6 307.4 358.9 306.9 358.8 307.7 359 307.8 359.1 308.6 359.2 309.6 359.5 310.8 359.9 311.8 360.4 313.3 360.8 314.7 361.8 316.1 362.4 317 363.8 318 364.7 318.7 365.9 319.9 367 321 368.5 322.1L370.2 323.2 371.6 324.1C372.8 324.8 372.9 323.6 373.7 323.6 374.1 323.6 375.6 324.7 376 325.1 378.2 327.1 377.5 326.5 379 328.3L382.4 332C383.2 332.8 384.3 334.4 385.5 334.6L386.7 334.7C388.1 335 389.6 335.5 391 335.1 391.5 335.1 391.9 334.8 392.1 334.5 392.4 334.1 392.6 333.6 393.2 333.5 393.7 333.6 394.9 334.1 395.5 334.3 396.9 335 398.8 336.1 400.3 336.4 401.8 336.7 402.8 335.5 402.6 334.5 402.2 333.5 400.6 332.4 399.8 330.8 399 329.4 398.5 327.9 397.5 326.7L395.4 324.1 394.2 322.1 393.5 321.3C393.4 321 393.2 320.1 393.1 319.7L391.7 316C391 314.8 389.7 314.9 388.9 313.1 389.5 313.9 390.6 314.8 391.4 315.1 391.1 314.1 390.2 312.5 389.6 311.6L388.3 310.3C389 310.9 389.6 311.4 390.5 311.5L390.8 310.5C391.2 309.4 391.6 309.2 391.6 307.9 391.5 305.7 389.4 302.4 389.1 299.7 389 298.5 389.3 297.3 389.4 296.1L389.4 294C389.4 293.6 389.6 293.4 389.7 292.8L389.7 291.4C389.9 290.6 390 290.3 389.9 289.5L389.2 287.3 389.2 285.8 389 283.7C388.8 282.1 389.6 281.4 389.8 280.3 389.9 279.8 389.2 278.4 388.9 278.2 388.5 278 387.6 278.2 387.9 277.5 388.2 276.8 389.4 278 389.7 278.4 390.1 277 389.8 276.8 389.6 275.6L389.1 272.3C388.8 271.4 388.3 270.9 388.2 270.5 388.3 270.1 388.7 270.1 389.2 269.5 389.6 268.9 389.8 268.2 389.9 267.6L389.9 265.3C390 264.3 390.9 262.9 392.1 262.5 393.2 262.3 394.4 263.5 395.1 263.4 395.7 263.4 396 262.7 396.2 262.3L397.7 257.9 398 257.9C398.7 259 399.3 259.2 400.2 260.1L401 260.9C401.1 261.1 401.3 260.9 401.6 260.8 402.1 260.2 402.6 258 402.3 257.4 402.1 256.9 401.5 256.4 401.3 255.8 401.3 255.4 401.5 255 401.7 254.6 402 253.8 402.2 252.8 402.8 252.2 403.9 251 406.3 250.7 407.7 251.8 408.4 252.4 408.3 252.8 408.6 253.2 409.1 253.6 409.7 253.6 410 254.4 410 254.6 409.9 255.3 409.8 255.7 409.9 256.5 410.1 256.7 409.8 257.5 409.3 258.3 408.6 258.9 408.3 259.9 407.9 261 408.6 261 408.4 262 408.1 262.9 407.4 263.6 407.1 264.6 406.8 265.1 406.8 265.7 406.2 266.1 405.7 266.4 404.9 266.4 404.4 266.4 403.7 266.6 403.1 267.1 402.4 267.4 402.5 267.6 402.5 267.9 402.6 268.1 402.9 268.9 403.5 268.9 404.1 268.7 405.2 268.4 406.5 267.7 407.5 268.5 408.4 269.3 408.7 271.8 409.4 272.7 410.1 273.3 410.7 273.2 411.5 273.4 412 273.6 412.4 273.8 412.9 274.2 413.9 275 413.6 275.7 414 276.3 414.5 276.7 414.8 276.5 415.3 277L417.2 280.1 418.5 278.9C418.9 279.4 419.5 279.4 419.5 278.7 419.5 278.3 419.3 277.6 419.1 277.2 420 278 420 278.7 420 279.9 420.1 280.1 420 280.4 420.1 280.6 420.2 281.2 420.8 282.1 421.2 282.5 421.8 282.8 422.2 282.7 422.7 282.4 423.1 281.7 423.4 280.5 424.1 279.6 424.7 278.9 425.8 278.7 426.9 277.4 426.6 277.3 425.8 277 425.8 276.6 426.1 276 426.8 276 427.3 275.7 428 275.1 428.6 274.1 428.8 273.2L427.2 273 426.2 272.9 424.9 273 423.7 272 421.8 271.9C422.1 271.3 422.3 270.8 423.1 270.8 423.5 270.7 424.1 271 424.3 270.8 424.8 270.6 424.8 270.1 425.1 269.8 425.8 269 426.8 268.7 427 267.7 428.1 267.8 428.3 267.6 428.8 267.6 429.9 268.1 430.3 270 430.8 271 429.4 270.6 429.7 271.8 429.6 272.7 430.1 272.4 430.7 271.7 431.2 271.5L432.9 271.5C433.3 271.4 433.4 271.3 433.8 271.1 434.7 270.9 435.3 271.5 435.7 272.3 436.2 272 436.2 271.7 435.9 271.2L436.5 271.1 436.2 270.1C435.5 270.2 435.4 270.1 435.2 270.7 434.6 270.4 434.6 270.4 434 270.3L434.4 269.9 434.4 269.6C433.3 269.1 434.6 268.7 434.8 268 434.9 267.6 434.7 267.4 434.5 267.1L436.2 266.5C436.9 265.6 437.5 266.2 437.7 265.3 439.1 265.5 438.6 263.9 439.7 263.5 439.9 263.4 440.3 263.5 440.6 263.4 440.9 263.3 441.3 263.1 441.7 262.9 442.2 262.9 442.5 262.9 443 262.7 443.5 262.4 443.9 261.7 444.3 261.3 444.5 261 445 260.5 445.1 260.3 445.2 259.9 445 259.5 444.9 258.8 445.5 258.9 445.8 258.9 446.2 258.5 446.6 258.2 446.5 257.6 446 257.4 445.8 257.4 445.4 257.5 445.3 257.5L447.1 255.9 447.4 254.3 446.9 254.4 447.1 253.6 445.7 253.8C445.9 253.5 446.6 252.6 446.8 252.4 447.5 251.9 448.1 252 448.4 251.2 447.1 251.4 445.6 252.6 444.8 253.6L443.5 255.3 443.6 254.8C442.3 255.1 442.4 255.9 441.9 256.2L441.6 256.4C442 256.3 439.4 256.4 439.8 256.5 439.2 256.5 438.4 255.9 437.9 255.4 437.4 255 437.1 254.7 436.6 255L434.2 253.1C434.4 252.8 434.6 252.7 434.3 252.4 434 252.2 433.3 252 432.7 251.7 431.7 250.8 431.8 250 431.7 248.9 431.5 247.8 431.4 247.8 431.1 246.9 430.9 246.6 430.9 246.3 430.6 245.9 430.3 245.6 429.5 245.1 429.1 244.8 428.5 244.3 427.8 243.7 427.2 243.6 426.2 243.4 425.5 244 424.7 243.8 424 243.6 423.1 242.8 422.3 242.5 421.8 242.4 421.1 242.4 420.6 242.5 420.6 242.2 420.5 241.7 420.3 241.6 419.8 241.4 419.1 241.7 418.6 241.8 418 241.8 417.9 241.4 417.5 241.3 417.1 241.2 415.2 241.3 415 241.6 414.8 241.7 414.9 242.1 415 242.3L415 242.3zM507.8 228.8C508.8 230.1 510.7 231.9 512.3 232.2 511.9 231.4 511.5 231.3 510.9 230.8 510 230.3 508.6 229.1 507.8 228.8L507.8 228.8zM497.4 223.5L497.1 222.9C497.6 223.1 498.2 223.3 498.5 223.8 498.6 224.2 498.7 224.5 498.7 224.8 498.8 225.6 500.2 227.3 500.9 227.4 501.2 227.5 501.2 227.4 501.5 227.4L500.8 224.8C500.5 224.4 500.1 224.6 499.7 224.1L497 220.9C496.8 220.7 496.2 219.9 496.3 219.5 496.5 219.3 497.2 219.2 497.4 219.2L495 216.9C494.7 216.7 494.2 216.2 493.7 216.4 493.2 216.5 493 217.2 492.8 217.6 492.6 218 492.3 218.5 492.3 218.9 492.5 219.4 493.1 220 493.4 220.3L495.7 222.2C496.3 222.8 496.6 223.2 497.4 223.5L497.4 223.5zM531.1 223.3C530.7 221.3 529.5 219.5 528 218L525.7 216.1C524.8 215.1 523.8 213.5 522.5 212.3 521.1 211.1 520 210.8 518.7 209.9L516.6 208 512.7 204.8C511.7 204 510.5 202.6 509.7 201.7 508.9 200.5 509.2 200.1 508.7 199.6 508.4 199.3 507.3 198.8 506.8 198.8L507 198.2 506 197.8C506.6 196.7 505.8 197 505 196 504.7 195.7 504.7 195.1 504.2 194.4 503.5 193.5 502.5 192.8 501.5 192.3L496.8 189.7C495.2 188.9 493.1 187.8 491.4 187.7 490.1 187.6 489.3 188.4 488 188.6 486.8 188.9 484.3 188.8 483.5 189.9 482.7 190.9 484.8 192.7 485.5 193.4L487.6 195.5C488.1 196.1 488.3 196.5 488.9 197.2 489.5 197.7 490.6 198.4 491.1 199 491.5 199.6 490.8 199.8 491.4 200.7 491.9 201.4 493 202.4 493.4 203.1 493.5 203.6 493.6 204.4 494.1 204.8 494.5 205 495 204.7 495.4 204.6 496 204.5 497.9 203.5 498.4 203.9 499 204.2 500.9 206.1 501.3 206.6 501.6 206.8 502.2 207.4 502.1 207.9 502.2 208.5 500.1 207.8 500.6 208.6 500.8 208.9 502 209.6 502.5 209.9L504.1 211.4 505.9 212.8C506.4 213.1 506.8 213.9 507.3 214.1 508.1 214.4 508.5 213.5 509.2 213.9 510.6 214.6 511.6 216.5 513 217.6 514 218.2 514.2 218.1 515.1 218.4 515.8 218.7 516.2 219.2 516.9 219.7 518 220.2 518.1 219.8 519.4 220.9 521.1 222.3 522.6 223.8 524.1 225.3 524.7 225.9 526.1 227.2 526.8 227.4 526.9 227.4 527 227.4 527.2 227.4L528.7 226.6C528.7 226.6 528.8 226.6 528.8 226.5 528.9 226.1 528.8 225.6 528.9 225.2 529 224.8 529.2 224.6 529.3 224.1 529.4 223.7 529.3 222.9 529.7 222.7 530.1 222.6 530.8 223.1 531.1 223.3L531.1 223.3zM499.4 189.4C499.3 188.9 499.2 188.8 499 188.3 498.2 187.2 497.3 186.5 496.1 186.1 495.7 186 494.5 185.7 494.3 186.1 493.9 186.6 495.4 187.6 495.8 187.8 496.2 188.2 496.8 188.4 497.2 188.7 498 189.2 498.4 189.3 499.4 189.4L499.4 189.4zM448.5 178.5C450.2 178.6 450.8 178.6 452.5 179.2 454 179.7 454.9 180.6 456.6 180.7L454.7 178.6 455.8 177.9C455.2 177.4 454.9 177.4 454.4 177.1 454.1 176.8 454 176.6 453.8 176.3 453.5 176.4 452.8 176.4 452.6 176.4 451.8 176.6 451.2 176.8 450.3 177.2 449.5 177.4 448.5 177.6 448.5 178.5L448.5 178.5zM456.4 174.9C456.2 175.6 455.5 175.8 454.9 176.2 455.1 176.3 455.1 176.5 455.2 176.6 455.6 176.8 457.8 177.1 458.3 177.2 459.6 177.2 459.7 176.5 461.2 176.2L463.1 175.9C465 175.7 467.4 175.6 469.1 174.8 468.4 174 468.1 174 467.1 173.7 465.6 173.3 464 173.2 462.5 173.7 461.1 174.1 461.2 174.6 459.4 174.8L456.4 174.9 456.4 174.9zM428.8 397.6C398.4 391.1 434.9 398.9 428.8 397.6L428.8 397.6z" class="a"/></g></g></svg>