<svg xmlns="http://www.w3.org/2000/svg" width="160" height="160" viewBox="0 0 160.1 159.6"><path d="M79.6 22.3c-32.8 0-59.4 26.6-59.4 59.4 0 29.8 22 54.5 50.7 58.7 0.6 0.1 1.1 0.2 1.6 0.2 2.9 0 4.3-2.4 4.3-4.4v-29.1l0-0.1 -25.2-25.2 28.4-28.4 28.4 28.4 -25.2 25.2 0.1-0.1v29.1c0 3.2 1.9 5.1 4.6 4.5 28.7-4.2 51.1-29 51.1-58.8 0-32.8-26.6-59.4-59.4-59.4M92.3 130v0l0-18.7 -0.2-0.1 29.2-29.2L79.7 40.4 38.1 82l29.8 29.8 0 18.1c-21.7-5.5-37.8-25.2-37.8-48.6 0-27.7 22.5-50.2 50.2-50.2 27.7 0 50.2 22.5 50.2 50.2 0 24.4-16.6 43.4-38 48.7"/><path d="M16.9 52.2l-1.5-0.8 0.8-1.5 1.5 0.8L16.9 52.2z"/><path d="M23.3 47.6l-7.4-5.1 1.6-2.4c0.6-0.9 1.1-1.5 1.3-1.7 0.4-0.3 0.9-0.5 1.5-0.6 0.6 0 1.1 0.2 1.7 0.6 0.5 0.3 0.8 0.7 1 1 0.2 0.4 0.3 0.8 0.3 1.1 0 0.4-0.1 0.7-0.2 1 -0.2 0.4-0.5 0.9-1 1.6l-0.7 1 2.8 1.9L23.3 47.6zM18.2 41.9l2.1 1.4 0.6-0.8c0.4-0.6 0.6-1 0.7-1.3 0.1-0.3 0-0.5 0-0.7 -0.1-0.2-0.2-0.4-0.5-0.6 -0.3-0.2-0.5-0.3-0.8-0.2 -0.3 0-0.5 0.2-0.7 0.4 -0.2 0.2-0.4 0.5-0.8 1L18.2 41.9z"/><path d="M32.7 35.6l-1.3 1.5 -2-0.7 -2.4 2.7 1 1.9 -1.3 1.4 -4.4-8.5 1.3-1.4L32.7 35.6zM27.8 35.8l-3.3-1.3 1.7 3.1L27.8 35.8z"/><path d="M34.1 34.5l-5-5.5 -2 1.8 -1-1.1 5.2-4.8 1 1.1 -2 1.8 5 5.5L34.1 34.5z"/><path d="M38.1 30.9l-5.2-7.3 3.1-2.2c0.8-0.6 1.4-0.9 1.8-1s0.9-0.1 1.3 0.1c0.5 0.2 0.8 0.5 1.1 0.9 0.4 0.5 0.5 1.1 0.5 1.7 -0.1 0.6-0.4 1.2-1 1.7 0.5 0 0.9 0 1.2 0.1 0.4 0.1 0.9 0.3 1.7 0.6l1.9 0.8 -1.8 1.3 -2.2-0.8c-0.8-0.3-1.3-0.5-1.5-0.5 -0.2 0-0.5 0-0.7 0 -0.2 0.1-0.5 0.2-0.8 0.4l-0.3 0.2 2.2 3L38.1 30.9zM36.6 25.6l1.1-0.8c0.7-0.5 1.1-0.8 1.3-1 0.1-0.2 0.2-0.4 0.2-0.6 0-0.2-0.1-0.4-0.2-0.7 -0.2-0.2-0.4-0.4-0.6-0.5s-0.5 0-0.8 0.1c-0.1 0.1-0.5 0.3-1.1 0.7l-1.1 0.8L36.6 25.6z"/><path d="M45.4 26l-4.5-7.7 1.6-0.9 4.5 7.7L45.4 26z"/><path d="M48.1 24.2l-3.7-8.2 2.5-1.1 4 4.9 -1-6.2 2.5-1.1 3.7 8.2 -1.5 0.7 -2.9-6.4 1.3 7.2 -1.6 0.7 -4.5-5.7 2.9 6.4L48.1 24.2z"/><path d="M55.9 16.1c-0.2-0.9-0.3-1.7-0.2-2.3 0.1-0.5 0.2-1 0.5-1.4 0.2-0.4 0.5-0.8 0.9-1.1 0.5-0.4 1.1-0.7 1.8-0.9 1.3-0.4 2.4-0.2 3.4 0.3 1 0.6 1.7 1.6 2.1 3 0.4 1.4 0.3 2.6-0.2 3.6 -0.5 1-1.4 1.7-2.7 2 -1.3 0.4-2.4 0.3-3.4-0.3C57 18.4 56.3 17.4 55.9 16.1zM57.7 15.5c0.3 1 0.7 1.7 1.3 2 0.6 0.4 1.2 0.5 1.9 0.3 0.7-0.2 1.2-0.6 1.5-1.2 0.3-0.6 0.3-1.4 0-2.4 -0.3-1-0.7-1.7-1.3-2 -0.6-0.4-1.2-0.4-1.9-0.2 -0.7 0.2-1.2 0.6-1.5 1.2C57.4 13.7 57.4 14.5 57.7 15.5z"/><path d="M66.6 17.8l-1.2-8.9L67.1 8.7l4.4 5.4 -0.8-5.9 1.7-0.2 1.2 8.9 -1.8 0.2 -4.3-5.3 0.8 5.8L66.6 17.8z"/><path d="M75.2 16.9l-0.3-8.9 1.8-0.1 0.3 8.9L75.2 16.9z"/><path d="M78.5 12.2c0.1-0.9 0.2-1.7 0.5-2.3 0.2-0.4 0.5-0.8 0.9-1.2 0.4-0.3 0.8-0.6 1.2-0.7 0.6-0.2 1.2-0.3 1.9-0.2 1.3 0.1 2.3 0.6 3.1 1.4s1.1 2 1 3.5c-0.1 1.4-0.5 2.5-1.4 3.3s-1.9 1.1-3.2 1c-1.3-0.1-2.4-0.5-3.1-1.4C78.7 14.8 78.4 13.6 78.5 12.2zM80.3 12.3c-0.1 1 0.1 1.8 0.6 2.3 0.4 0.6 1 0.8 1.7 0.9 0.7 0 1.3-0.2 1.8-0.7 0.5-0.5 0.8-1.3 0.8-2.3 0.1-1-0.1-1.8-0.5-2.3 -0.4-0.5-1-0.8-1.7-0.9 -0.7 0-1.4 0.2-1.8 0.7C80.7 10.5 80.4 11.2 80.3 12.3z"/><path d="M91.3 17.9l2.3-8.6 2.6 0.7 0 6.3 3.1-5.5 2.6 0.7L99.6 20.1l-1.6-0.4 1.8-6.8 -3.5 6.3 -1.7-0.5 0.1-7.3 -1.8 6.8L91.3 17.9z"/><path d="M104.5 12.4l1.7 0.7 -1.9 4.5c-0.3 0.7-0.5 1.2-0.5 1.4 -0.1 0.4 0 0.7 0.2 1 0.2 0.3 0.5 0.6 1 0.8 0.5 0.2 0.9 0.3 1.2 0.2 0.3-0.1 0.6-0.3 0.7-0.5 0.2-0.3 0.4-0.7 0.7-1.4l2-4.5 1.7 0.7 -1.9 4.3c-0.4 1-0.8 1.7-1 2 -0.3 0.4-0.6 0.6-0.9 0.8 -0.4 0.2-0.8 0.3-1.3 0.3s-1-0.1-1.7-0.4c-0.8-0.3-1.3-0.7-1.7-1 -0.3-0.4-0.5-0.7-0.7-1.1 -0.1-0.4-0.1-0.8-0.1-1.1 0.1-0.5 0.3-1.2 0.7-2.2L104.5 12.4z"/><path d="M109 24.2l4.6-7.7 1.5 0.9 0.1 7 3.1-5.1 1.4 0.9 -4.6 7.7 -1.6-0.9 -0.1-6.9 -3 5L109 24.2z"/><path d="M122 21.8l2.6 2.1c0.6 0.5 1 0.9 1.2 1.2 0.3 0.4 0.5 0.9 0.5 1.5 0 0.5 0 1.1-0.2 1.7s-0.6 1.2-1.1 1.8c-0.5 0.6-0.9 1-1.4 1.3 -0.6 0.4-1.2 0.6-1.7 0.6 -0.4 0-0.9 0-1.4-0.2 -0.4-0.2-0.8-0.4-1.4-0.9l-2.7-2.1L122 21.8zM122.5 24.1l-3.7 4.6 1.1 0.8c0.4 0.3 0.7 0.5 0.9 0.6 0.3 0.1 0.5 0.2 0.8 0.2 0.3 0 0.6-0.1 0.9-0.4 0.3-0.2 0.7-0.6 1.2-1.2 0.4-0.5 0.7-1 0.9-1.4 0.1-0.4 0.2-0.7 0.1-1 0-0.3-0.2-0.6-0.4-0.9 -0.2-0.2-0.5-0.5-1.1-1L122.5 24.1z"/><path d="M123.1 34.4l6.2-6.4 1.3 1.3 -6.2 6.4L123.1 34.4z"/><path d="M130.8 42.8l-1.3-1.5 1-1.9 -2.3-2.7 -2 0.8 -1.2-1.5 9.1-3.2 1.2 1.5L130.8 42.8zM131.3 38l1.7-3.1 -3.3 1.2L131.3 38z"/><path d="M131.2 43.4l7.4-4.9 1 1.5 -6.1 4.1 2.5 3.7 -1.3 0.8L131.2 43.4z"/><path d="M139.9 51.2l1.6-0.7 0.7 1.6 -1.6 0.7L139.9 51.2z"/><path d="M10.6 57.4l9.2 0.5 -0.5 1.8 -6.3-0.4 5.4 3.3 -0.6 2.1 -6.4-0.3 5.6 3.1 -0.5 1.7 -8-4.6 0.5-1.8 6.9 0.2 -5.9-3.6L10.6 57.4z"/><path d="M12.1 68.6c0.9 0.1 1.6 0.3 2.2 0.7 0.4 0.3 0.8 0.6 1.1 1 0.3 0.4 0.5 0.8 0.7 1.2 0.2 0.6 0.2 1.2 0.1 2 -0.2 1.3-0.7 2.3-1.6 3 -0.9 0.7-2.1 0.9-3.5 0.8 -1.4-0.2-2.5-0.7-3.2-1.6 -0.7-0.9-1-2-0.8-3.3 0.2-1.3 0.7-2.3 1.6-3S10.6 68.4 12.1 68.6zM11.9 70.4c-1-0.1-1.8 0-2.4 0.4 -0.6 0.4-0.9 1-1 1.7s0.1 1.3 0.6 1.9c0.5 0.5 1.2 0.8 2.2 1 1 0.1 1.8 0 2.4-0.4 0.6-0.4 0.9-0.9 1-1.7 0.1-0.7-0.1-1.4-0.5-1.9C13.6 70.9 12.9 70.6 11.9 70.4z"/><path d="M6.5 78.9l8.9-0.1 0.1 3.8c0 1-0.1 1.7-0.2 2.1 -0.2 0.4-0.4 0.8-0.8 1.1 -0.4 0.3-0.9 0.4-1.4 0.4 -0.7 0-1.2-0.2-1.7-0.6s-0.7-1-0.9-1.8c-0.2 0.4-0.5 0.7-0.7 1 -0.3 0.3-0.7 0.6-1.4 1.1L6.7 86.9l0-2.2 1.9-1.3c0.7-0.5 1.1-0.8 1.3-1 0.2-0.2 0.3-0.4 0.4-0.5 0.1-0.2 0.1-0.5 0.1-0.9l0-0.4 -3.7 0.1L6.5 78.9zM11.7 80.6l0 1.3c0 0.9 0.1 1.4 0.1 1.6 0.1 0.2 0.2 0.4 0.4 0.5 0.2 0.1 0.4 0.2 0.7 0.2 0.3 0 0.5-0.1 0.7-0.3 0.2-0.2 0.3-0.4 0.3-0.7 0-0.1 0-0.6 0-1.3l0-1.4L11.7 80.6z"/><path d="M6.9 88.6l8.8-1.2 0.3 1.8L8.6 90.2l0.6 4.4 -1.5 0.2L6.9 88.6z"/><path d="M16.8 94.5l0.9 3.2c0.2 0.7 0.3 1.3 0.3 1.7 0 0.5-0.2 1.1-0.4 1.5 -0.3 0.5-0.7 0.9-1.2 1.2 -0.5 0.3-1.2 0.6-2 0.8 -0.7 0.2-1.3 0.3-1.9 0.2 -0.7 0-1.3-0.2-1.8-0.5 -0.4-0.2-0.7-0.6-1-1 -0.2-0.4-0.4-0.9-0.6-1.5l-0.9-3.3L16.8 94.5zM15.8 96.6l-5.7 1.5 0.4 1.3c0.1 0.5 0.3 0.8 0.4 1 0.1 0.3 0.3 0.5 0.5 0.6 0.2 0.1 0.5 0.2 1 0.2 0.4 0 1-0.1 1.6-0.2 0.7-0.2 1.2-0.4 1.5-0.6 0.3-0.2 0.6-0.5 0.7-0.7 0.1-0.3 0.2-0.6 0.2-0.9 0-0.3-0.1-0.7-0.3-1.5L15.8 96.6z"/><path d="M12.3 109.7l8.1-3.9 0.8 1.6 -3.2 1.5 1.5 3.2 3.2-1.5 0.8 1.6 -8.1 3.9 -0.8-1.6 3.5-1.7 -1.5-3.2 -3.5 1.7L12.3 109.7z"/><path d="M16.6 118.4l7.5-4.9 3.6 5.6 -1.3 0.8 -2.6-4 -1.7 1.1 2.4 3.8 -1.3 0.8 -2.4-3.8 -2 1.3 2.7 4.2 -1.3 0.8L16.6 118.4z"/><path d="M21.7 125.9l6.8-5.8 2.5 2.9c0.6 0.7 1 1.3 1.2 1.7 0.2 0.4 0.2 0.9 0 1.3 -0.1 0.5-0.4 0.9-0.8 1.2 -0.5 0.4-1.1 0.6-1.6 0.6 -0.6 0-1.2-0.3-1.8-0.8 0.1 0.4 0.1 0.9 0.1 1.2s-0.2 0.9-0.4 1.7l-0.6 2 -1.4-1.6 0.6-2.3c0.2-0.8 0.4-1.3 0.4-1.6 0-0.2 0-0.5-0.1-0.7 -0.1-0.2-0.2-0.4-0.5-0.8l-0.2-0.3 -2.8 2.4L21.7 125.9zM26.8 123.9l0.9 1c0.6 0.7 0.9 1 1.1 1.2s0.4 0.2 0.6 0.1c0.2 0 0.4-0.1 0.6-0.3 0.2-0.2 0.4-0.4 0.4-0.7s0-0.5-0.2-0.7c-0.1-0.1-0.4-0.5-0.8-1l-0.9-1.1L26.8 123.9z"/><path d="M28 133l6.2-6.4 1.3 1.3 -6.2 6.4L28 133z"/><path d="M32.4 137l4.7-5.7 -2-1.7 1-1.2 5.5 4.5 -1 1.2 -2-1.7 -4.7 5.7L32.4 137z"/><path d="M43.3 144.8l-1.6-1.1 0.5-2.1 -3-2 -1.7 1.3 -1.6-1 7.8-5.6 1.6 1L43.3 144.8zM42.5 140l0.8-3.5 -2.8 2.1L42.5 140z"/><path d="M50 144.4l0.6-1.4 3.5 1.7 -1.5 3.2c-0.5 0.2-1.1 0.2-1.9 0.2s-1.5-0.2-2.2-0.5c-0.8-0.4-1.5-0.9-2-1.6 -0.5-0.7-0.7-1.4-0.7-2.2 0-0.8 0.2-1.6 0.5-2.4 0.4-0.8 0.9-1.5 1.6-2 0.7-0.5 1.4-0.7 2.3-0.8 0.6 0 1.4 0.1 2.1 0.5 1 0.5 1.7 1.1 2.1 1.7 0.4 0.7 0.5 1.4 0.3 2.3l-1.8-0.5c0.1-0.5 0-0.9-0.2-1.2 -0.2-0.4-0.5-0.7-1-0.9 -0.7-0.3-1.4-0.4-2-0.1 -0.6 0.3-1.2 0.8-1.6 1.7 -0.5 1-0.6 1.8-0.4 2.5 0.2 0.7 0.6 1.2 1.3 1.5 0.3 0.2 0.7 0.3 1.1 0.3 0.4 0 0.8 0 1.1-0.1l0.5-1L50 144.4z"/><path d="M54.4 149.9l2.7-8.5 6.3 2 -0.5 1.4 -4.6-1.5 -0.6 1.9 4.3 1.4 -0.5 1.4 -4.3-1.4 -0.7 2.3 4.8 1.5 -0.5 1.4L54.4 149.9z"/><path d="M67.5 149.7l0.3-1.7 1.7 0.3 -0.3 1.7L67.5 149.7z"/><path d="M75 154.2l0.2-8.9 2.9 0.1c1.1 0 1.8 0.1 2.1 0.2 0.5 0.1 0.9 0.4 1.3 0.9 0.3 0.5 0.5 1 0.5 1.8 0 0.6-0.1 1-0.3 1.4 -0.2 0.4-0.5 0.7-0.8 0.9 -0.3 0.2-0.6 0.3-0.9 0.4 -0.4 0.1-1.1 0.1-1.9 0.1l-1.2 0 -0.1 3.4L75 154.2zM76.9 146.8l0 2.5 1 0c0.7 0 1.2 0 1.4-0.1 0.2-0.1 0.4-0.2 0.6-0.4 0.1-0.2 0.2-0.4 0.2-0.7 0-0.3-0.1-0.6-0.3-0.8s-0.4-0.4-0.7-0.4c-0.2 0-0.6-0.1-1.3-0.1L76.9 146.8z"/><path d="M91.1 153.5l-2 0.2 -1-1.9 -3.6 0.4 -0.5 2.1 -1.9 0.2 2.6-9.2 1.9-0.2L91.1 153.5zM87.4 150.3l-1.6-3.2 -0.9 3.4L87.4 150.3z"/><path d="M93.7 152.9l-1.5-7.3 -2.6 0.6 -0.3-1.5 7-1.5 0.3 1.5 -2.6 0.5 1.5 7.3L93.7 152.9z"/><path d="M99.9 151.5L96.9 143l3.6-1.2c0.9-0.3 1.6-0.5 2-0.5 0.5 0 0.9 0.2 1.3 0.5 0.4 0.3 0.7 0.7 0.8 1.2 0.2 0.6 0.2 1.2 0 1.8s-0.7 1-1.4 1.4c0.4 0.1 0.8 0.2 1.2 0.4 0.3 0.2 0.8 0.5 1.4 1l1.6 1.3 -2 0.7 -1.9-1.4c-0.7-0.5-1.1-0.8-1.3-0.9 -0.2-0.1-0.4-0.2-0.6-0.2 -0.2 0-0.5 0.1-0.9 0.2l-0.3 0.1 1.2 3.5L99.9 151.5zM99.9 146l1.3-0.4c0.8-0.3 1.3-0.5 1.5-0.6 0.2-0.1 0.3-0.3 0.4-0.5s0-0.4 0-0.7c-0.1-0.3-0.3-0.5-0.5-0.6 -0.2-0.1-0.5-0.2-0.8-0.1 -0.1 0-0.6 0.2-1.3 0.4l-1.3 0.5L99.9 146z"/><path d="M108.7 148.1l-3.7-8.2 1.6-0.7 3.7 8.2L108.7 148.1z"/><path d="M112.5 146.5l-4.5-7.7 2.3-1.4 4.5 4.5 -1.7-6.1 2.3-1.4 4.5 7.7 -1.5 0.8 -3.5-6.1 2 7 -1.5 0.9 -5.1-5.2 3.5 6.1L112.5 146.5z"/><path d="M119.1 137.4c-0.6-0.7-0.9-1.4-1.1-2 -0.1-0.5-0.2-1-0.1-1.5 0-0.5 0.2-1 0.4-1.4 0.3-0.5 0.7-1 1.3-1.5 1-0.8 2.1-1.2 3.2-1 1.1 0.1 2.1 0.8 3.1 1.9 0.9 1.1 1.3 2.3 1.2 3.4 -0.1 1.1-0.7 2.1-1.7 2.9 -1 0.8-2.1 1.2-3.2 1S120 138.6 119.1 137.4zM120.5 136.2c0.6 0.8 1.3 1.2 2 1.4 0.7 0.1 1.3-0.1 1.9-0.5 0.6-0.4 0.9-1 0.9-1.7 0-0.7-0.3-1.4-0.9-2.3 -0.6-0.8-1.3-1.3-2-1.4 -0.7-0.1-1.3 0.1-1.9 0.5 -0.6 0.5-0.9 1-0.9 1.7C119.5 134.7 119.8 135.4 120.5 136.2z"/><path d="M129.9 134.1l-6.3-6.4 1.3-1.3 6.3 6.4L129.9 134.1z"/><path d="M132.8 131.2l-6.8-5.8 1.1-1.3 6.9 1.1 -4.6-3.9 1.1-1.3 6.8 5.8 -1.2 1.4 -6.8-1 4.5 3.8L132.8 131.2z"/><path d="M139 123.7l-7.5-4.9 3.6-5.6 1.3 0.8 -2.6 4.1 1.7 1.1 2.4-3.8 1.3 0.8 -2.4 3.8 2 1.3 2.7-4.2 1.3 0.8L139 123.7z"/><path d="M145.5 112.6l-8.3-3.4 1-2.5 6.3 0.8 -5-3.8 1-2.5 8.3 3.4 -0.6 1.6 -6.5-2.7 5.9 4.3 -0.7 1.6 -7.2-1 6.5 2.7L145.5 112.6z"/><path d="M145.2 101.4c-0.9-0.2-1.6-0.5-2.1-0.9 -0.4-0.3-0.7-0.7-1-1.1 -0.3-0.4-0.4-0.9-0.5-1.3 -0.1-0.6-0.1-1.2 0.1-2 0.3-1.3 1-2.2 1.9-2.8 1-0.6 2.2-0.7 3.6-0.4 1.4 0.3 2.4 1 3 1.9 0.6 1 0.8 2.1 0.5 3.3 -0.3 1.3-1 2.2-1.9 2.8C147.7 101.6 146.5 101.7 145.2 101.4zM145.5 99.6c1 0.2 1.8 0.2 2.4-0.1 0.6-0.3 1-0.9 1.2-1.6s0.1-1.3-0.3-1.9c-0.4-0.6-1.1-1-2.1-1.2 -1-0.2-1.8-0.2-2.4 0.1 -0.6 0.3-1 0.8-1.2 1.6 -0.2 0.7-0.1 1.4 0.3 1.9C143.8 98.9 144.5 99.3 145.5 99.6z"/><path d="M151.8 91.8l-8.9-0.9 0.2-1.7 6.3-3.1 -5.9-0.6 0.2-1.7 8.9 0.9 -0.2 1.8 -6.2 3 5.8 0.6L151.8 91.8z"/><path d="M143.6 82.4l-0.1-3.3c0-0.7 0-1.3 0.1-1.7 0.1-0.5 0.4-1 0.8-1.4 0.4-0.4 0.9-0.7 1.4-0.9 0.6-0.2 1.3-0.3 2.1-0.4 0.7 0 1.4 0 1.9 0.2 0.7 0.2 1.2 0.5 1.6 0.9 0.3 0.3 0.6 0.7 0.8 1.2 0.1 0.4 0.2 0.9 0.3 1.6l0.1 3.4L143.6 82.4zM145 80.6l5.9-0.2 -0.1-1.3c0-0.5-0.1-0.9-0.1-1.1 -0.1-0.3-0.2-0.5-0.4-0.7 -0.2-0.2-0.5-0.3-0.9-0.4 -0.4-0.1-1-0.1-1.6-0.1 -0.7 0-1.2 0.1-1.6 0.2 -0.4 0.1-0.6 0.3-0.8 0.5 -0.2 0.2-0.3 0.5-0.4 0.9 0 0.3-0.1 0.8 0 1.5L145 80.6z"/><path d="M151.9 72.6l-8.9 1.2 -0.2-1.8 8.9-1.2L151.9 72.6z"/><path d="M149.6 60.7l0.4 1.9 -1.8 1.2 0.8 3.5 2.1 0.3 0.4 1.9 -9.5-1.4 -0.4-1.9L149.6 60.7zM146.9 64.8l-3 1.9 3.5 0.4L146.9 64.8z"/><path d="M149 59.1l-8.3 3 -0.6-1.7 6.9-2.5 -1.5-4.2 1.4-0.5L149 59.1z"/></svg>